<?xml version="1.0" encoding="UTF-8"?>
<!DOCTYPE svg PUBLIC "-//W3C//DTD SVG 1.1//EN" "http://www.w3.org/Graphics/SVG/1.1/DTD/svg11.dtd">
<!-- Creator: CorelDRAW 2019 (64-Bit) -->
<svg xmlns="http://www.w3.org/2000/svg" xml:space="preserve" width="36px" height="36px" version="1.1" shape-rendering="geometricPrecision" text-rendering="geometricPrecision" image-rendering="optimizeQuality" fill-rule="evenodd" clip-rule="evenodd"
viewBox="0 0 10.49 10.49"
 xmlns:xlink="http://www.w3.org/1999/xlink"
 xmlns:xodm="http://www.corel.com/coreldraw/odm/2003">
 <g id="Layer_x0020_1">
  <metadata id="CorelCorpID_0Corel-Layer"/>
  <path fill="white" d="M4.4 4.95c0.04,0.72 0.01,1.51 0.01,2.23 0,1.08 -0.26,1.44 0.86,1.44 0.95,0 0.82,-0.06 0.82,-1.39 0,-0.54 -0.06,-1.82 0.03,-2.28 1.41,1.45 1.41,1.71 2.36,0.67 0.36,-0.41 0,-0.69 -0.23,-0.92l-2.19 -2.19c-0.97,-0.98 -0.7,-0.91 -2.35,0.75 -0.5,0.5 -0.96,0.96 -1.46,1.46 -0.24,0.23 -0.61,0.45 -0.23,0.88 0.14,0.15 0.58,0.63 0.79,0.66 0.43,0.08 1.19,-1.12 1.59,-1.31z"/>
  <circle fill="none" stroke="white" stroke-width="0.17" stroke-miterlimit="22.9256" cx="5.25" cy="5.25" r="5.16"/>
 </g>
</svg>
