<?xml version="1.0" encoding="UTF-8"?>
<!DOCTYPE svg PUBLIC "-//W3C//DTD SVG 1.1//EN" "http://www.w3.org/Graphics/SVG/1.1/DTD/svg11.dtd">
<!-- Creator: CorelDRAW 2019 (64-Bit) -->
<svg xmlns="http://www.w3.org/2000/svg" xml:space="preserve" width="20px" height="20px" version="1.1" shape-rendering="geometricPrecision" text-rendering="geometricPrecision" image-rendering="optimizeQuality" fill-rule="evenodd" clip-rule="evenodd"
viewBox="0 0 2.69 2.69"
 xmlns:xlink="http://www.w3.org/1999/xlink"
 xmlns:xodm="http://www.corel.com/coreldraw/odm/2003">
 <g id="Layer_x0020_1">
  <metadata id="CorelCorpID_0Corel-Layer"/>
  <path fill="#FF6600" d="M0.83 1.33c-0.02,-0.03 -0.04,-0.05 -0.06,-0.07 -0.04,-0.05 -0.08,-0.1 -0.12,-0.15l-0.22 -0.26c-0.01,-0.01 -0.02,-0.03 -0.03,-0.04l0.38 -0.37c0.01,0 0.13,0.11 0.15,0.12 0.03,0.02 0.05,0.04 0.07,0.06 0.03,0.02 0.05,0.04 0.08,0.06 0.04,0.03 0.27,0.23 0.29,0.25 0,0.01 -0.04,0.04 -0.06,0.06 -0.05,0.05 -0.4,0.41 -0.42,0.42l-0.06 -0.08z"/>
  <path fill="#FF6600" stroke="#FF6600" stroke-width="0.08" stroke-miterlimit="22.9256" d="M1.88 1.02c-0.01,0.02 -0.04,0.05 -0.06,0.06l-0.71 0.72c-0.02,0.02 -0.04,0.04 -0.06,0.06 -0.02,0.01 -0.04,0.04 -0.06,0.05 -0.04,-0.04 -0.07,-0.1 -0.07,-0.19 0,-0.04 0,-0.08 0.01,-0.12 0.01,-0.05 0.01,-0.05 0.04,-0.08l0.52 -0.52c0.01,-0.01 0.01,-0.02 0.03,-0.03 0.13,-0.03 0.27,-0.04 0.36,0.05z"/>
  <path fill="#FF6600" stroke="#FF6600" stroke-width="0.08" stroke-miterlimit="22.9256" d="M0.21 0.77c-0.03,0 -0.06,-0.01 -0.09,-0.02 -0.01,0 -0.02,-0.01 -0.03,-0.02 -0.01,0 -0.01,0 -0.02,-0.01 0,0 0,-0.01 -0.01,-0.01l0.66 -0.66c0.06,0.03 0.08,0.19 0.05,0.26 -0.01,0.01 -0.15,0.15 -0.17,0.17l-0.26 0.25c-0.02,0.02 -0.01,0.02 -0.05,0.03 -0.03,0.01 -0.05,0.01 -0.08,0.01z"/>
  <path fill="#FF6600" stroke="#FF6600" stroke-width="0.08" stroke-miterlimit="22.9256" d="M2.5 2.53c-0.02,-0.01 -0.02,-0.01 -0.04,-0.03 -0.01,0 -0.02,-0.01 -0.03,-0.02l-0.28 -0.24 -0.59 -0.59c-0.02,-0.02 -0.05,-0.05 -0.06,-0.06l0.06 -0.06c0.01,0.02 0.04,0.05 0.06,0.06l0.54 0.55c0.07,0.07 0.05,0.05 0.12,0.13l0.22 0.26z"/>
 </g>
</svg>
