<?xml version="1.0" encoding="UTF-8"?>
<!DOCTYPE svg PUBLIC "-//W3C//DTD SVG 1.1//EN" "http://www.w3.org/Graphics/SVG/1.1/DTD/svg11.dtd">
<!-- Creator: CorelDRAW 2019 (64-Bit) -->
<svg xmlns="http://www.w3.org/2000/svg" xml:space="preserve" width="20px" height="20px" version="1.1" shape-rendering="geometricPrecision" text-rendering="geometricPrecision" image-rendering="optimizeQuality" fill-rule="evenodd" clip-rule="evenodd"
viewBox="0 0 2.38 2.38"
 xmlns:xlink="http://www.w3.org/1999/xlink"
 xmlns:xodm="http://www.corel.com/coreldraw/odm/2003">
 <g id="Layer_x0020_1">
  <metadata id="CorelCorpID_0Corel-Layer"/>
  <g id="_1520434302928">
   <path fill="#990000" d="M0.24 1.23c0,-0.17 0.02,-0.3 0.09,-0.45l0.06 -0.1c0.15,-0.25 0.47,-0.44 0.76,-0.44 0.17,0 0.3,0.02 0.45,0.09 0.1,0.05 0.18,0.11 0.26,0.19 0.15,0.15 0.28,0.39 0.28,0.62 0,0.18 -0.02,0.31 -0.09,0.46l-0.08 0.14c-0.06,0.08 -0.15,0.17 -0.23,0.22 -0.14,0.1 -0.32,0.18 -0.5,0.18 -0.18,0 -0.3,-0.02 -0.46,-0.09 -0.2,-0.1 -0.35,-0.25 -0.45,-0.45 -0.04,-0.09 -0.09,-0.24 -0.09,-0.37zm-0.24 -0.05c0,0.09 0.01,0.19 0.03,0.27 0.02,0.08 0.04,0.15 0.08,0.22l0.04 0.1c0.05,0.08 0.16,0.23 0.23,0.29 0.05,0.04 0.05,0.05 0.13,0.1 0.13,0.09 0.24,0.15 0.41,0.19 0.06,0.01 0.2,0.03 0.27,0.03 0.05,0 0.21,-0.02 0.26,-0.03 0.23,-0.05 0.41,-0.16 0.58,-0.32 0.24,-0.22 0.39,-0.64 0.34,-0.97 -0.02,-0.15 -0.03,-0.21 -0.09,-0.35 -0.06,-0.14 -0.15,-0.26 -0.25,-0.36 -0.03,-0.04 -0.11,-0.1 -0.16,-0.13l-0.13 -0.09c-0.06,-0.03 -0.21,-0.08 -0.28,-0.1 -0.14,-0.03 -0.26,-0.04 -0.4,-0.02 -0.27,0.03 -0.52,0.15 -0.71,0.33l-0.13 0.17c-0.04,0.06 -0.08,0.11 -0.11,0.19 -0.05,0.12 -0.08,0.2 -0.1,0.34 0,0.04 -0.01,0.1 -0.01,0.14z"/>
   <path fill="#990000" d="M1.07 0.73l0 0.57c0,0.17 0.24,0.17 0.24,0l0 -0.57c0,-0.18 -0.24,-0.18 -0.24,0z"/>
   <path fill="#990000" d="M1.2 1.79c0.06,0 0.11,-0.07 0.11,-0.12 0.01,-0.07 -0.05,-0.12 -0.13,-0.12 -0.06,0 -0.12,0.06 -0.11,0.12 0.01,0.06 0.06,0.12 0.13,0.12z"/>
  </g>
 </g>
</svg>
